<svg width="22" height="16" viewBox="0 0 22 16" fill="none" xmlns="http://www.w3.org/2000/svg">
<g clip-path="url(#clip0_2_1234)">
<g clip-path="url(#clip1_2_1234)">
<rect width="22" height="16" rx="2" fill="white"/>
<path fill-rule="evenodd" clip-rule="evenodd" d="M0 11H22V16H0V11Z" fill="#1A47B8"/>
<path fill-rule="evenodd" clip-rule="evenodd" d="M0 0H22V5H0V0Z" fill="#F93939"/>
<path fill-rule="evenodd" clip-rule="evenodd" d="M8.38098 4.26668H9.4286V5.33335H8.38098V4.26668ZM10.4762 3.20001H11.5238V5.33335H10.4762V3.20001ZM12.5715 4.26668H13.6191V5.33335H12.5715V4.26668Z" fill="#3A99FF"/>
<path fill-rule="evenodd" clip-rule="evenodd" d="M11.5238 3.20001H12.5714V5.33335H11.5238V3.20001ZM9.42859 3.20001H10.4762V5.33335H9.42859V3.20001Z" fill="#1A47B8"/>
<mask id="mask0_2_1234" style="mask-type:alpha" maskUnits="userSpaceOnUse" x="8" y="5" width="6" height="7">
<path d="M13.6191 9.06668C13.6191 10.5387 12.4457 11.7333 11 11.7333C9.55431 11.7333 8.38098 10.5387 8.38098 9.06668V5.33334H13.6191V9.06668Z" fill="white"/>
</mask>
<g mask="url(#mask0_2_1234)">
<path d="M13.6191 9.06668C13.6191 10.5387 12.4457 11.7333 11 11.7333C9.55431 11.7333 8.38098 10.5387 8.38098 9.06668V5.33334H13.6191V9.06668Z" fill="#F93939"/>
<path fill-rule="evenodd" clip-rule="evenodd" d="M9.4286 10.6667H10.4762V11.7333H9.4286V10.6667ZM11.5238 10.6667H12.5715V11.7333H11.5238V10.6667ZM10.4762 9.60001H11.5238V10.6667H10.4762V9.60001ZM9.4286 8.53334H10.4762V9.60001H9.4286V8.53334ZM11.5238 8.53334H12.5715V9.60001H11.5238V8.53334ZM10.4762 7.46668H11.5238V8.53334H10.4762V7.46668ZM9.4286 6.40001H10.4762V7.46668H9.4286V6.40001ZM11.5238 6.40001H12.5715V7.46668H11.5238V6.40001ZM10.4762 5.33334H11.5238V6.40001H10.4762V5.33334ZM12.5715 5.33334H13.6191V6.40001H12.5715V5.33334ZM12.5715 7.46668H13.6191V8.53334H12.5715V7.46668ZM12.5715 9.60001H13.6191V10.6667H12.5715V9.60001ZM8.38098 9.60001H9.4286V10.6667H8.38098V9.60001ZM8.38098 7.46668H9.4286V8.53334H8.38098V7.46668ZM8.38098 5.33334H9.4286V6.40001H8.38098V5.33334Z" fill="white"/>
</g>
</g>
</g>
<defs>
<clipPath id="clip0_2_1234">
<rect width="22" height="16" fill="white"/>
</clipPath>
<clipPath id="clip1_2_1234">
<rect width="22" height="16" rx="2" fill="white"/>
</clipPath>
</defs>
</svg>
